<?xml version="1.0" encoding="utf-8"?>
<!-- Generator: Adobe Illustrator 23.0.5, SVG Export Plug-In . SVG Version: 6.00 Build 0)  -->
<svg version="1.1" id="Layer_1" xmlns="http://www.w3.org/2000/svg" xmlns:xlink="http://www.w3.org/1999/xlink" x="0px" y="0px"
	 viewBox="0 0 2500 1000" style="enable-background:new 0 0 2500 1000;" xml:space="preserve">
<style type="text/css">
	.st0{fill-rule:evenodd;clip-rule:evenodd;fill:#F1BC19;}
</style>
<path class="st0" d="M692.6,912.9c-6.5-4.2-13.3-7.9-20.3-11.1c-1.4-0.7-2.9-1.3-4.5-1.8c-0.7-0.2-1.3-0.6-1.7-1
	c-0.5-0.5-0.8-1.1-1-1.7c-0.2-0.6-0.2-1.3,0-1.9c0.2-0.6,0.5-1.2,1-1.7c36.5-37.5,52.4-80.3,54-131.9c1.3-39.3-5.9-76.6-27.5-110.6
	c-15.3-23.3-35.3-43.5-58.8-59.6c-1-0.7-2.1-1.4-3.2-2c-8.9-4.8-15.8-7.6-21.9-10h0c-3.2-1.3-6.1-2.4-9-3.8
	c-1.4-0.6-2.6-1.6-3.5-2.8c-0.9-1.2-1.3-2.7-1.4-4.1c0-1.5,0.4-2.9,1.1-4.2c0.8-1.3,1.9-2.3,3.3-3c4.5-2.2,9.8-4.8,15.5-7.5l0,0
	c21.3-10.3,48-23.2,57.4-30.2c26.2-19,45-45.5,53.8-75.6c8.8-30.1,6.9-62-5.3-90.9c-15.2-35.9-43.9-60.6-78.6-79.5
	c-36.9-19.9-77.7-32.6-120-37.3c-18.6-2.2-31.5-9.4-41.2-23.9c-1.3-2-2.6-3.9-3.9-5.8l0,0c-1.2-1.7-2.4-3.5-3.6-5.2l-40.2-62.3
	C391.5,78.4,331.6,35.7,255.6,12.8c-11.4-3.4-23.2-6.1-34.9-8.7C214.9,2.7,209,1.4,203.2,0c-7.4,0.4-14.3,0.8-21.7,1.1
	c-19.8,8-24.9,17.6-21.7,38.3c6.7,42.6,29.4,77.2,60.2,107.5c23.6,23.2,52.4,39.4,81.7,55.3c11.5,6.1,23.1,12.2,34.7,18.2
	c4.6,2.4,9.3,4.9,13.9,7.3c0,0.4-0.1,0.7-0.2,1.1c-0.1,0.3-0.2,0.5-0.2,0.8c-2.5-0.2-5.1-0.6-7.6-1.1c-13.4-3.6-26.7-7.4-40-11.2h0
	c-27.4-7.8-54.9-15.5-82.7-22.1C161.9,181,100.9,185.5,46.3,208c-7.1,3.1-13.8,7-19.8,11.8c-5.7,4.5-9.6,10.8-10.8,17.7
	c-1.2,6.9,0.2,14.1,4.1,20.1c11.2,17.3,27.8,29.4,45.9,39.7c39.1,22.3,82.1,34,127,41.1c37.1,5.7,74.2,2.7,111.2-1.9
	c2.1-0.3,4.2-0.6,6.4-0.8l0,0c3.2-0.4,6.4-0.9,9.6-1.2c0.6,0,1.2,0.3,2.1,0.7l0,0c0.1,0.1,0.3,0.1,0.5,0.2c-0.4,1.5-1,2.9-1.8,4.3
	c-26.5,36-44.5,76-61.5,116.5c-18.1,43.3-54.2,168.5-72.8,233.2l0,0l-0.9,3.2v0.3c-2.2,7.7-4.1,14.5-5.8,20.1h0.6
	c-0.1,0.5-0.3,1.1-0.4,1.6c-0.2,0.8-0.4,1.6-0.7,2.5v0c-2.6,9.7-5.3,19.5-6.6,25.7c-1.7,8-3.3,16-5,24l0,0
	c-1.1,5.6-2.3,11.2-3.5,16.9c-0.3,1.4-0.7,2.8-1.2,4.2v0c-0.2,0.7-0.5,1.4-0.7,2.1c-2.9-1.1-5.7-2.3-8.4-3.4l0,0
	c-5.7-2.4-11.1-4.7-16.8-6.4c-41.8-12.6-88.3,0-114,30.2c-8.4,10.1-14.2,21.9-17.1,34.4c-0.5,1.8-0.9,3.6-1.4,5.4l0,0
	c-0.5,2-1,4-1.5,6v26.4c0.7,1.6,1.3,3.2,1.7,4.8c3,22.1,12.6,43.2,32.8,54.6c44.3,24.9,90.5,26.5,132.1,4.3
	c14.7-7.8,23.9-7.3,37.8-0.4c49.5,24.5,103.6,35.5,158.8,38.9c45.6,3,91.5-0.1,136.2-9.1c6.2-1.3,12.7-1.2,18.9,0.3
	c17.2,4.1,42.1,6.3,60.6,8c12.5,1.1,22,2,24.3,3c10.7,5.1,22.3,8.7,34.1,10.5c11,1.7,22.1,2.6,33.2,2.6c10.4,0.3,20.7-1.5,30.2-5.4
	c4.9-2.1,9.2-5.2,12.7-9c3.5-3.8,6.1-8.3,7.7-13.1c2.3-6.2,2.8-12.9,1.7-19.4c-1.2-6.5-4-12.6-8.3-17.8
	C710.3,926.6,702,919.1,692.6,912.9z M580,785.4c-1,24.7-8.8,48.8-22.5,69.8c-18.7,27-47.1,46.5-80.1,54.9
	c-69.1,19.9-143.1,18.8-211.6-3c-2.8-1-5.7-2.2-8.9-3.6c-2.4-1.1-5.1-2.2-8.1-3.4c-0.9,0.7-10.4-4.3-20-9.9
	c-0.8-0.6-1.6-1.1-2.5-1.5c-0.5-0.4-1.1-0.8-1.7-1.1c-0.3-0.1-0.5-0.2-0.7-0.4l-1.4-1c-4.4-3.4-7.9-7.6-10.3-12.5
	c-2.4-4.8-3.7-10.1-3.7-15.4v-4.3v-1.5C222,742.4,301.2,457,326,398.1c11.6-27.7,24-55.3,42.2-80.1c0.6-0.9,1-2,1.2-3
	c-0.3-0.1-0.6-0.2-0.8-0.3c-0.3-0.1-0.6-0.3-0.8-0.3c-1,0.1-2,0.3-3,0.4h0c-2.7,0.4-5.4,0.8-8.2,1c-25.4,3.1-50.8,5.3-76.5,1.4
	c-30.7-4.1-60.4-13.7-87.3-28.3c-12.6-6.5-23.5-15.8-31.5-27.1c-6.6-10.2-5.2-18.7,4.5-26.2c4.1-3.3,8.6-6,13.5-8.1
	c37.5-15.5,79.5-18.7,119.1-8.9c18.8,4.4,37.4,9.6,55.9,14.9c9.5,2.7,19,5.3,28.5,7.9c1.7,0.4,3.4,0.7,5.2,0.9
	c0-0.3,0.1-0.6,0.2-0.9v0c0-0.1,0.1-0.2,0.1-0.4c-3.3-1.7-6.6-3.5-9.9-5.2l0,0c-7.9-4.1-15.8-8.2-23.5-12.4
	c-20.1-10.9-39.9-22-56.2-38c-21.2-21-36.7-44.7-41.3-73.9c-2.3-14.6,1.5-21.3,15.7-26.7h16.1c3.3,0.8,6.6,1.6,9.9,2.3
	c8.1,1.9,16.3,3.7,24.2,6.2c52.3,15.9,93.5,45.2,122.1,89.7l27.6,42.9c0.8,1.2,1.6,2.4,2.5,3.7l0,0l0,0c0.9,1.3,1.9,2.6,2.7,4
	c3,4.7,7.1,8.6,12,11.5c4.9,2.8,10.5,4.5,16.3,4.9c29,3.2,57.1,11.9,82.5,25.5c23.9,12.8,43.7,30,54.3,54.8
	c8.2,19.6,9.5,41.2,3.7,61.6c-1.2,4.9-1.2,10,0.2,14.8c1.3,4.9,3.8,9.4,7.4,13.1c13.5,15.2,17.5,29.2,11.9,44
	c-8.6,24.9-24.7,46.8-46.3,63.2c-12.6,9.8-27.1,17.3-42.6,22.1c-1.1,0.3-2,0.5-3.1,0.8l0,0l0,0c-0.3,0.1-0.7,0.2-1.1,0.2
	c-2.4,0.4-4.9,0.6-7.4,0.6c-8.9,0-17.6-2.9-24.4-8.3l-28-23.4c0,0-26.5-25.9-53.5-38.3c-3.6-1.7-7.3-3.1-11.2-4.3
	c-0.2-0.1-0.4-0.2-0.7-0.2c-2.6-0.5-5.2-0.8-7.8-0.8c-5.9,0-11.7,1.3-16.9,3.7c-5.3,2.4-9.9,6-13.5,10.4c-1.6,2.7-3,5.4-4.3,8l0,0
	c-0.8,1.5-1.5,2.9-2.2,4.3c-17.2,37.4-4.2,63.3,42.2,86.1c28.1,13.8,45,27.7,57.8,38.2h0c5.6,4.6,10.5,8.6,15.1,11.6
	c3.9,3.4,7.7,7.1,11.3,10.8c10.3,10.3,19.2,21.7,26.5,34c7.6,13.2,13.4,27.2,17.3,41.7c5.5,20,7.6,40.7,6.3,61.3V785.4z M833,631.7
	c-53.1-7.7-79.6-29.8-79.6-66.2c0-6,0.9-12,2.9-17.7l83.7-179.9h134l-83.6,179.9c-0.6,1.8-1,3.6-1,5.5c0,6.3,5.2,11.1,15.6,14.4
	c5.2,2.1,10.9,3,16.5,2.8c14.2-0.4,28.3-2.6,41.8-6.6c19.5-5.5,36.3-17.2,47.7-33.1l74.9-162.8h134.3l-119.7,262.7H965.4l7.8-16
	c-38.4,11.7-78.4,17.7-118.7,17.7C846,632.2,838.9,632,833,631.7z M1273.8,628.4l73.8-158.9c6.3-6.7,14-12.1,22.5-16
	c9.7-4.9,19.4-9.4,29.1-13.8c11.8-5.8,24.8-9,38-9.4c5.4-0.1,10.7,1.1,15.5,3.4c10.4,3.2,15.6,8.1,15.6,14.3c0,2-0.7,3.9-2,5.5
	l-79,171.1c-1.1,2.6-2.1,5.3-2.9,8.1c-1.5,5.1-3,11.7-4.5,19c-0.9,4.2-1.4,8.5-1.4,12.8c0,8.6,1.9,17.2,5.5,25.1
	c3.7,7.9,9,15,15.8,20.9c2.7,2,5.6,3.9,9,5.9c3.4,2,7.4,4.3,11.4,6.3c22.2,11,49.2,16.4,81,16.4c57-1.5,100.8-11.4,131.3-29.8
	l-29.1-49.7c-12.6,7.2-27.1,10.8-41.9,10.5c-26.4-1.4-40.5-13.4-41.7-36c-0.2-3.6,0.6-7.2,2.2-10.4l79.6-170.3c2-5.1,3-10.5,2.9-16
	c0-31.7-26.6-54.4-79.8-68.1c-10.6-1.6-21.3-2.3-32-2.2c-36.2,0.3-72.1,6.4-106.1,18.2l7.8-17.7h-134.3L1139.7,628L1273.8,628.4z
	 M2368.8,367.3l-165.4,152.9l-26.3-153.4h-134.3l45,261.6c-18.3,14.8-39,26.6-61.3,35.1c-7,2.5-105.3,21.9-98.7-35.1l81.7-175.1
	c2-5.1,3-10.5,2.9-16c0-31.7-26.6-54.4-79.8-68.1c-10.6-1.6-21.4-2.3-32.1-2.2c-36.2,0.3-72.1,6.5-106.1,18.2l7.8-17.7h-134.4
	L1547.2,628h134.3l73.9-158.9c6.3-6.7,14-12.1,22.5-16c9.7-4.8,19.5-9.4,29.2-13.8c11.7-5.8,24.7-9,38-9.4c5.4-0.1,10.7,1,15.6,3.3
	c10.4,3.3,15.5,8.1,15.5,14.4c0,2-0.7,3.9-1.9,5.5l-80.9,175.3c-19.8,34,2.6,75.2,23.4,87.8c56.2,32.2,180.1,44.1,274.6,1.6
	c26.5-9.9,51.4-23.3,74-39.7c9.8-7.4,28.6-24,56.4-49.7l281.3-261H2368.8z M1107,757c0,10.9-5.2,21.3-15.4,31.4
	c-11.5,10.8-25.5,19-40.8,24c24,11.3,36,26.7,36,46c-0.6,13-5.8,25.5-14.9,35.4c-12.6,14.3-28.8,25.3-47.2,31.9
	c-19.5,7.5-40.4,11.3-61.5,11.3c-14.5,0.1-29-1.8-43-5.7c-4.1-1-14.2-4-30.3-8.8l14.9-34.4c3.1,2,6.4,3.6,9.9,5
	c8.5,3.6,17.7,5.6,27,6c3.6,0.7,7.3,1,11,0.9c12,0,23.8-2.5,34.8-7.2c13.2-5.8,21.5-13.5,24.8-22.9c1-3.1,1.6-6.4,1.7-9.7
	c0-13.6-11.6-23-34.8-28.2c-14.8-3.2-29.9-4.6-45-4.3l0.5-0.6h-0.5l12.1-28.5c2.1,0,3.8,0.1,5,0.2v0c0.4,0,0.8,0.1,1.2,0.1
	c0.2,0,0.3,0,0.5,0h12.1c36-1.4,57.7-12.8,65.1-34c0.7-1.8,1.1-3.7,1.1-5.6c0-11.3-7.9-19.5-23.7-24.4c-11.6-3.8-23.8-5.2-36-4.3
	c-3.1,0.5-6.2,0.7-9.4,0.6l-93.2,202.4H781l43.6-94.8l43.6-94.8c-14.2,4.4-29.2,6.5-44.2,6.3c-5.5,0-11.2,0-17.1-0.6l13.8-30
	c4.8,0.4,9.4,0.6,13.8,0.6c24,0,42.2-7.1,54.6-21.3l71.2-0.3c61.8-0.4,104.6,8.9,128.5,27.8C1100.9,735.4,1107,745.6,1107,757z
	 M1559.2,853.3c-14.4-5.7-29.1-10.5-44.2-14.4c-15.6-4.6-23.4-8.6-23.4-12.1c0-3.4,3.2-6.2,9.4-8.5c6-2.3,12.3-3.4,18.7-3.4
	c25.3-0.6,50.5,3.8,73.9,12.8l15.4-35.1c-20-7.7-46.4-11.6-79.1-11.6c-25.8-0.5-51.3,4.8-74.4,15.5c-22.1,10.8-33.1,24.3-33.1,40.3
	c0,9.8,7.5,18,22.5,24.4c14.4,4.3,28.8,8.8,43.3,13.4c14.5,4.6,21.8,9.8,21.8,15.6c0,7.7-12.1,11.6-36.4,11.6
	c-24.7,0.5-49.3-2.9-72.8-10l-15.4,34.7c6.2,2.8,20,5.4,41.4,7.8c14.9,2.1,29.9,3.4,45,3.7c31.6,0,57.9-5.4,78.9-16.1
	c21-10.8,31.5-24.9,31.5-42.6C1582.4,869.2,1574.7,860.5,1559.2,853.3z M1832.2,956.9c-6,0.1-11.9-1.4-17.1-4.3
	c-4.8-3.3-7-9.4-6.6-18.1l45.8-100.1c1.1-2.9,1.7-6,1.6-9.1c0-18-14.9-30.7-44.7-38.3c-5.9-0.9-12-1.3-18-1.3
	c-20.3,0.1-40.5,3.5-59.6,10l31.8-59.8h-70L1593,934.1h76.1L1711,844c3.5-4,7.8-7.3,12.7-9.7c5.2-3,10.5-5.7,16-8.1
	c6.7-3,14.1-4.7,21.5-5c3.2-0.1,6.4,0.5,9.4,1.6c5.5,1.9,8.3,4.7,8.3,8.5c0,1.1-0.2,2.1-0.5,3.1l-45.8,100
	c-4.9,11.8-9.9,32.3,12.7,48.5c16,9,34.4,13.5,53,12.8c32.4-0.9,57.2-6.5,74.5-17l-17.1-28.2c-6.7,4.6-14.9,6.8-23.2,6.2
	L1832.2,956.9z M1382,779.2h-76.5l-6.2,13.2c-12.5-9.9-29.4-14.8-50.5-14.8c-22.6,0.6-44.8,6.1-64.8,16c-20.1,9.9-37.5,23.9-51,41
	c-10.6,12.9-16.6,28.7-17.1,45.1c0,27.1,15.3,44.3,46,51.8c8,1.8,16.2,2.7,24.4,2.6c19.2-0.3,38.1-4.3,55.5-11.9
	c-0.1-1.8-0.5-3.6-1.3-5.2c-1.6-2.7-2.9-5.6-4.1-8.5c-1.4-4.1-1.1-8.6,0.8-12.5c0-0.2,0.1-0.4,0.2-0.6c0.1-0.1,0.1-0.3,0.2-0.4
	c-4.5,0-4.5-0.4-2.3-4c0.4-0.6,0.7-1.1,1.1-1.8c-0.3,0-0.5,0-0.8,0c-1.4-0.2-2.9-0.6-4.2-1.1c-2.5-0.3-4.8-1.3-6.8-2.8
	c-22.5-10.9-24.7-37.6-24.7-38.3c-0.3-5.2,0.7-10.5,3-15.3c2.3-4.8,5.8-8.9,10.2-12.2c4.4-3.2,9.6-5.4,15-6.3
	c5.5-0.9,11.1-0.5,16.4,1.1c2.4,0.7,4.8,1.6,7,2.8c1.6,0.7,3.1,1.6,4.5,2.7c6.1,4,10.7,9.9,12.9,16.6c1.8,6.4,1.8,13.1,0,19.5
	c0,0.6,0,1.3-0.3,1.9c-2.2,9.8-7.6,18.8-15.4,25.5c-3.3,2.7-7.2,4.6-11.5,5.7c1,1.1,1.9,2.1,2.8,3.1c0.8,1,0.6,2.6-1.1,2.5
	c-1.7-0.1-3,1.2-3.7,2.9c-1,2.5-1.5,5.2-1.2,7.9c0.2,2.7,1.1,5.3,2.6,7.6c1.8,2.7,3.1,5.7,4,8.9c13.6,9.7,30.2,14.7,47.2,14.2
	c18.8-0.4,37.3-4.3,54.5-11.3l14.5-29.1c-5.4,1.2-10.9,1.8-16.5,1.9c-8.7,0-13.1-2.1-13.1-6.4c0-1.5,0.4-2.9,1.1-4.3L1382,779.2z
	 M1222.1,821.3l-1.5,0.8c-3.9,2.2-7.3,5.3-9.8,8.9c-1.9,2.9-3.3,6.2-4,9.6c0,0.3-0.2,0.6-0.3,0.9c-0.2,0.3-0.3,0.5-0.3,0.8
	c0,0.4,0.1,0.7,0.3,1.1c0.2,0.3,0.4,0.6,0.7,0.8c1.2,0.5,1.7-0.5,1.9-1.4V842c0.8-3.3,2.2-6.4,4.1-9.3c2.2-3.2,5.1-6,8.5-8.1
	c0.5-0.2,1-0.6,1.4-1c0.1-0.2,0.2-0.5,0.2-0.7s-0.1-0.5-0.2-0.7c0.2-0.5-0.2-0.8-0.6-1l0,0l-0.1,0c0,0,0,0-0.1,0L1222.1,821.3z
	 M1939.5,954.2c4.6-4.3,7.2-10.2,7.2-16.3c0.2-3.1-0.3-6.2-1.4-9.2c-1.1-2.9-2.9-5.6-5.2-7.9c-2.3-2.3-5-4-8.1-5.3
	c-3-1.2-6.3-1.8-9.6-1.8c-3.3,0-6.6,0.6-9.6,1.8c-3,1.2-5.8,3-8.1,5.2c-2.3,2.2-4.1,4.9-5.3,7.8c-1.2,2.9-1.7,6-1.6,9.2
	c0,6.1,2.6,12,7.2,16.3c4.6,4.3,10.8,6.8,17.3,6.8C1928.7,961,1934.9,958.5,1939.5,954.2z M2000.4,959.2h-40.5v-130h40.5V959.2z
	 M1971.3,771.2c2.8-1.1,5.8-1.6,8.9-1.6v-0.1c3.1-0.1,6.1,0.5,8.9,1.6c2.8,1.1,5.4,2.7,7.5,4.7c2.2,2,3.8,4.5,4.9,7.2
	c1.1,2.7,1.7,5.6,1.6,8.4c0.1,2.8-0.3,5.6-1.4,8.2c-1.1,2.6-2.7,5-4.7,7c-2.3,2.2-5,3.9-8,5c-3,1.1-6.2,1.7-9.4,1.6
	c-3,0-6-0.6-8.8-1.8c-2.8-1.1-5.3-2.8-7.4-4.8c-2.1-2.1-3.8-4.5-4.9-7.1c-1.1-2.7-1.7-5.5-1.7-8.4s0.7-5.7,1.9-8.3
	c1.2-2.6,2.9-5,5.1-7C1965.9,773.9,1968.5,772.3,1971.3,771.2z M2060.4,838.4c10.6-7.9,23.7-12.2,37.2-12v-0.1
	c25.3,0,54.8,15.9,54.9,61v71.8H2112v-69.3c0-29-16.7-29-22.3-29c-5.5,0.1-10.8,1.9-15.2,5.1c-4.4,3.2-7.5,7.6-9.1,12.6
	c-0.9,2.8-1.4,5.6-1.3,8.5v72.3h-40.5v-88.4c0-13.7-0.3-23.7-1.1-33.2l-0.7-8.5h37.9L2060.4,838.4z M307.9,863.1L307.9,863.1
	l-0.1-0.2c0.5-0.3,1-0.6,1.5-0.9c0.6-0.4,1.2-0.7,1.7-1.1C309.9,861.7,308.9,862.4,307.9,863.1z"/>
</svg>
